<svg viewBox="0 0 101 101" fill="none" xmlns="http://www.w3.org/2000/svg">
<rect x="0.952515" y="0.952515" width="100" height="100" fill="url(#paint0_linear_201_18)"/>
<path d="M72.4525 39.2717L60.4846 33.4514C59.8103 33.1156 59.0611 32.9551 58.3073 32.9848C57.5535 33.0145 56.8196 33.2336 56.1742 33.6214C55.5289 34.0092 54.9931 34.5532 54.6171 35.2024C54.2412 35.8516 54.0373 36.5848 54.0244 37.3335V62.583C54.028 63.3607 53.7352 64.111 53.2046 64.6834C52.6741 65.2557 51.9451 65.6077 51.1639 65.6687C50.7483 65.7006 50.3306 65.6474 49.9366 65.5125C49.5425 65.3777 49.1806 65.1639 48.8732 64.8846C48.5657 64.6052 48.3192 64.2662 48.1491 63.8885C47.979 63.5108 47.8888 63.1025 47.8841 62.6888V37.3347C47.8713 36.586 47.6674 35.8527 47.2914 35.2035C46.9154 34.5543 46.3797 34.0104 45.7344 33.6225C45.089 33.2347 44.3551 33.0157 43.6012 32.986C42.8474 32.9562 42.0983 33.1168 41.4239 33.4526L29.4525 39.2717V45.95L41.7379 39.9762V62.4981C41.7421 64.8751 42.6761 67.1576 44.3431 68.8642C46.01 70.5708 48.2797 71.5682 50.6732 71.646C51.8925 71.6926 53.1088 71.4964 54.2504 71.0689C55.3921 70.6414 56.4359 69.9912 57.3203 69.1568C58.2047 68.3223 58.9117 67.3205 59.3997 66.2104C59.8876 65.1003 60.1466 63.9045 60.1613 62.6935V39.9762L72.4467 45.95L72.4525 39.2717Z" fill="#F1F3F5"/>
<path d="M66.3099 62.0597C66.224 66.0458 64.5682 69.8399 61.6977 72.6288C58.8271 75.4177 54.97 76.9795 50.9531 76.9795C46.9362 76.9795 43.0792 75.4177 40.2086 72.6288C37.338 69.8399 35.6823 66.0458 35.5964 62.0597V47.7892L29.4525 50.7761V62.0539C29.5699 67.6363 31.8866 72.9508 35.9058 76.8576C39.9249 80.7644 45.3264 82.9525 50.9519 82.9525C56.5775 82.9525 61.979 80.7644 65.9981 76.8576C70.0172 72.9508 72.334 67.6363 72.4514 62.0539V50.7761L66.3087 47.7892L66.3099 62.0597Z" fill="#F1F3F5"/>
<path d="M55.9947 20.1105C54.4247 19.3486 52.7001 18.9525 50.9525 18.9525C49.2049 18.9525 47.4803 19.3486 45.9103 20.1105L29.4525 28.1072V34.7856L45.9103 26.783C47.4803 26.0211 49.2049 25.625 50.9525 25.625C52.7001 25.625 54.4247 26.0211 55.9947 26.783L72.4514 34.7856V28.1072L55.9947 20.1105Z" fill="#F1F3F5"/>
<defs>
<linearGradient id="paint0_linear_201_18" x1="0.952515" y1="0.952515" x2="100.953" y2="100.953" gradientUnits="userSpaceOnUse">
<stop stop-color="#2094FF"/>
<stop offset="1" stop-color="#68B1F4"/>
</linearGradient>
</defs>
</svg>
