<svg width="124" height="124" viewBox="0 0 124 124" fill="none" xmlns="http://www.w3.org/2000/svg">
<circle cx="62" cy="62" r="59.3043" stroke="url(#paint0_linear_29_1958)" stroke-width="5.3913" stroke-dasharray="1.35 4.04"/>
<rect x="12.1309" y="13.4766" width="99.7391" height="99.7391" rx="49.8696" fill="url(#paint1_linear_29_1958)"/>
<path d="M83.4445 51.6958L71.5078 45.8907C70.8352 45.5558 70.088 45.3957 69.3361 45.4254C68.5843 45.455 67.8523 45.6735 67.2086 46.0603C66.565 46.4471 66.0306 46.9896 65.6556 47.6371C65.2806 48.2846 65.0772 49.016 65.0645 49.7627V74.9463C65.0681 75.722 64.7759 76.4704 64.2468 77.0412C63.7176 77.612 62.9905 77.9631 62.2114 78.024C61.7969 78.0558 61.3803 78.0027 60.9873 77.8682C60.5942 77.7337 60.2333 77.5205 59.9266 77.2419C59.62 76.9633 59.3741 76.6252 59.2045 76.2485C59.0348 75.8717 58.9448 75.4645 58.9401 75.0519V49.7639C58.9273 49.0171 58.724 48.2858 58.349 47.6383C57.974 46.9908 57.4397 46.4482 56.796 46.0614C56.1523 45.6746 55.4203 45.4562 54.6685 45.4265C53.9166 45.3969 53.1694 45.557 52.4968 45.8919L40.5566 51.6958V58.3567L52.8099 52.3986V74.8617C52.8141 77.2325 53.7457 79.509 55.4084 81.2112C57.071 82.9133 59.3347 83.9081 61.7219 83.9856C62.9381 84.0322 64.1512 83.8365 65.2899 83.4101C66.4285 82.9837 67.4697 82.3352 68.3517 81.5029C69.2338 80.6707 69.939 79.6715 70.4257 78.5643C70.9123 77.4571 71.1706 76.2644 71.1853 75.0565V52.3986L83.4386 58.3567L83.4445 51.6958Z" fill="#F1F3F5"/>
<path d="M77.3179 74.4242C77.2322 78.3999 75.5808 82.1841 72.7177 84.9657C69.8546 87.7474 66.0075 89.3051 62.0011 89.3051C57.9947 89.3051 54.1478 87.7474 51.2847 84.9657C48.4216 82.1841 46.7702 78.3999 46.6845 74.4242V60.1909L40.5566 63.17V74.4184C40.6738 79.9863 42.9844 85.2869 46.9931 89.1835C51.0017 93.0801 56.3892 95.2625 62 95.2625C67.6108 95.2625 72.9982 93.0801 77.0069 89.1835C81.0155 85.2869 83.3262 79.9863 83.4433 74.4184V63.17L77.3166 60.1909L77.3179 74.4242Z" fill="#F1F3F5"/>
<path d="M67.0296 32.5846C65.4637 31.8247 63.7436 31.4297 62.0006 31.4297C60.2575 31.4297 58.5374 31.8247 56.9715 32.5846L40.5566 40.5605V47.2214L56.9715 39.2397C58.5374 38.4798 60.2575 38.0848 62.0006 38.0848C63.7436 38.0848 65.4637 38.4798 67.0296 39.2397L83.4433 47.2214V40.5605L67.0296 32.5846Z" fill="#F1F3F5"/>
<defs>
<linearGradient id="paint0_linear_29_1958" x1="0" y1="0" x2="124" y2="124" gradientUnits="userSpaceOnUse">
<stop stop-color="#2094FF"/>
<stop offset="1" stop-color="#68B1F4"/>
</linearGradient>
<linearGradient id="paint1_linear_29_1958" x1="12.1309" y1="13.4766" x2="111.87" y2="113.216" gradientUnits="userSpaceOnUse">
<stop stop-color="#2094FF"/>
<stop offset="1" stop-color="#68B1F4"/>
</linearGradient>
</defs>
</svg>
