<svg width="20" height="32" viewBox="0 0 20 32" fill="#E4E5E9" xmlns="http://www.w3.org/2000/svg">
<path d="M19.9086 10.0906L14.4534 7.23096C14.1461 7.06598 13.8046 6.98711 13.461 7.00172C13.1174 7.01632 12.7829 7.12393 12.4887 7.31447C12.1946 7.50502 11.9503 7.77227 11.779 8.09124C11.6076 8.41021 11.5147 8.77046 11.5088 9.13832V21.5439C11.5105 21.926 11.377 22.2946 11.1351 22.5758C10.8933 22.857 10.561 23.03 10.205 23.06C10.0155 23.0756 9.82512 23.0495 9.64551 22.9832C9.4659 22.9169 9.30094 22.8119 9.16079 22.6747C9.02065 22.5374 8.90831 22.3709 8.83077 22.1853C8.75323 21.9997 8.7121 21.7991 8.70996 21.5959V9.13889C8.70412 8.77103 8.61117 8.41078 8.4398 8.09181C8.26843 7.77284 8.02426 7.50559 7.73009 7.31504C7.43593 7.1245 7.10139 7.01689 6.75778 7.00229C6.41418 6.98768 6.0727 7.06655 5.76533 7.23153L0.308594 10.0906V13.3718L5.90843 10.4367V21.5022C5.91034 22.67 6.3361 23.7915 7.09592 24.63C7.85574 25.4685 8.89027 25.9585 9.98127 25.9967C10.537 26.0196 11.0915 25.9232 11.6118 25.7132C12.1322 25.5031 12.608 25.1837 13.0111 24.7737C13.4142 24.3637 13.7365 23.8715 13.9589 23.3261C14.1813 22.7807 14.2994 22.1932 14.3061 21.5982V10.4367L19.9059 13.3718L19.9086 10.0906Z" />
<path d="M17.1414 21.5533C17.1027 23.5463 16.3566 25.4434 15.0629 26.8379C13.7692 28.2323 12.031 29.0133 10.2207 29.0133C8.41048 29.0133 6.67227 28.2323 5.3786 26.8379C4.08494 25.4434 3.33877 23.5463 3.30005 21.5533V14.418L0.53125 15.9114V21.5504C0.58417 24.3416 1.62821 26.9989 3.43948 28.9523C5.25075 30.9057 7.68502 31.9997 10.2202 31.9997C12.7554 31.9997 15.1897 30.9057 17.0009 28.9523C18.8122 26.9989 19.8563 24.3416 19.9092 21.5504V15.9114L17.1409 14.418L17.1414 21.5533Z" />
<path d="M12.4072 0.58508C11.6916 0.200111 10.9055 0 10.1089 0C9.31224 0 8.52615 0.200111 7.81049 0.58508L0.308594 4.62563V8L7.81049 3.95651C8.52615 3.57154 9.31224 3.37143 10.1089 3.37143C10.9055 3.37143 11.6916 3.57154 12.4072 3.95651L19.9086 8V4.62563L12.4072 0.58508Z" />
</svg>
