<svg width="71" height="22" viewBox="0 0 71 22" fill="#E4E5E9" xmlns="http://www.w3.org/2000/svg">
<path d="M24.9067 16.5545C23.7101 16.5545 22.7282 16.211 21.9612 15.5238C21.1941 14.8366 20.8105 13.9152 20.8105 12.7595V5.40381H22.9123V12.5878C22.9123 13.1604 23.0709 13.6133 23.3879 13.9465C23.7152 14.2796 24.2215 14.4462 24.9067 14.4462C25.592 14.4462 26.0931 14.2796 26.4102 13.9465C26.7375 13.6133 26.9011 13.1604 26.9011 12.5878V5.40381H29.0183V12.7595C29.0183 13.9152 28.6347 14.8366 27.8676 15.5238C27.1006 16.211 26.1136 16.5545 24.9067 16.5545Z" />
<path d="M34.6842 8.30862C35.7172 8.30862 36.5968 8.70947 37.3229 9.51115C38.0593 10.3024 38.4275 11.2759 38.4275 12.4316C38.4275 13.5873 38.0593 14.5659 37.3229 15.3676C36.5968 16.1589 35.7172 16.5545 34.6842 16.5545C33.6103 16.5545 32.7818 16.1745 32.1989 15.4145V19.4594H30.2198V8.52727H32.1989V9.44869C32.7818 8.68864 33.6103 8.30862 34.6842 8.30862ZM32.7972 14.0245C33.1961 14.4306 33.7023 14.6336 34.316 14.6336C34.9297 14.6336 35.4359 14.4306 35.8348 14.0245C36.2439 13.6081 36.4485 13.0771 36.4485 12.4316C36.4485 11.7861 36.2439 11.2603 35.8348 10.8542C35.4359 10.4378 34.9297 10.2295 34.316 10.2295C33.7023 10.2295 33.1961 10.4378 32.7972 10.8542C32.3983 11.2603 32.1989 11.7861 32.1989 12.4316C32.1989 13.0771 32.3983 13.6081 32.7972 14.0245Z" />
<path d="M45.7144 7.46529H41.4188V10.0578H45.5917V12.1192H41.4188V16.3359H39.3016V5.40381H45.7144V7.46529Z" />
<path d="M48.5304 9.87035C48.7145 9.3706 49.0162 8.99578 49.4355 8.74591C49.8651 8.49603 50.3407 8.37109 50.8623 8.37109V10.62C50.2589 10.5471 49.7168 10.672 49.2361 10.9948C48.7656 11.3176 48.5304 11.8537 48.5304 12.6034V16.3359H46.5513V8.52727H48.5304V9.87035Z" />
<path d="M57.6569 15.3676C56.8694 16.1589 55.908 16.5545 54.7727 16.5545C53.6374 16.5545 52.676 16.1589 51.8885 15.3676C51.1112 14.5659 50.7226 13.5873 50.7226 12.4316C50.7226 11.2759 51.1112 10.3024 51.8885 9.51115C52.676 8.70947 53.6374 8.30862 54.7727 8.30862C55.908 8.30862 56.8694 8.70947 57.6569 9.51115C58.4445 10.3024 58.8382 11.2759 58.8382 12.4316C58.8382 13.5873 58.4445 14.5659 57.6569 15.3676ZM53.2846 13.9777C53.6835 14.3837 54.1795 14.5868 54.7727 14.5868C55.3659 14.5868 55.862 14.3837 56.2608 13.9777C56.6597 13.5716 56.8592 13.0563 56.8592 12.4316C56.8592 11.8069 56.6597 11.2915 56.2608 10.8855C55.862 10.4794 55.3659 10.2764 54.7727 10.2764C54.1795 10.2764 53.6835 10.4794 53.2846 10.8855C52.8959 11.2915 52.7016 11.8069 52.7016 12.4316C52.7016 13.0563 52.8959 13.5716 53.2846 13.9777Z" />
<path d="M68.1007 8.30862C68.9802 8.30862 69.6808 8.60015 70.2024 9.18319C70.7343 9.76624 71.0002 10.5471 71.0002 11.5258V16.3359H69.0211V11.6663C69.0211 11.1978 68.9086 10.8334 68.6836 10.5731C68.4586 10.3128 68.1416 10.1827 67.7325 10.1827C67.2824 10.1827 66.9296 10.3337 66.6739 10.6356C66.4284 10.9375 66.3057 11.3748 66.3057 11.9475V16.3359H64.3266V11.6663C64.3266 11.1978 64.2141 10.8334 63.9891 10.5731C63.7641 10.3128 63.4471 10.1827 63.038 10.1827C62.5982 10.1827 62.2453 10.3337 61.9794 10.6356C61.7237 10.9375 61.5959 11.3748 61.5959 11.9475V16.3359H59.6168V8.52727H61.5959V9.35498C62.0561 8.65741 62.7669 8.30862 63.7283 8.30862C64.6693 8.30862 65.3648 8.68344 65.8148 9.43307C66.3262 8.68344 67.0881 8.30862 68.1007 8.30862Z" />
<path d="M14.6897 6.98459L10.6012 4.98385C10.3708 4.86843 10.1149 4.81325 9.85736 4.82347C9.59984 4.83368 9.34914 4.90897 9.12867 5.04229C8.9082 5.1756 8.72517 5.36259 8.59674 5.58575C8.4683 5.80892 8.39864 6.06097 8.39426 6.31834V14.9979C8.39549 15.2653 8.29543 15.5232 8.11419 15.7199C7.93294 15.9167 7.6839 16.0377 7.41705 16.0586C7.27508 16.0696 7.13237 16.0513 6.99776 16.0049C6.86315 15.9586 6.73951 15.8851 6.63448 15.7891C6.52944 15.6931 6.44525 15.5765 6.38713 15.4467C6.32902 15.3169 6.2982 15.1765 6.29659 15.0343V6.31874C6.29221 6.06137 6.22255 5.80932 6.09412 5.58615C5.96568 5.36299 5.78268 5.176 5.56221 5.04269C5.34174 4.90937 5.09101 4.83408 4.83349 4.82387C4.57596 4.81365 4.32004 4.86883 4.08968 4.98425L0 6.98459V9.28028L4.19692 7.22679V14.9687C4.19835 15.7858 4.51745 16.5705 5.08691 17.1571C5.65638 17.7438 6.43173 18.0866 7.2494 18.1133C7.66594 18.1294 8.08145 18.0619 8.47146 17.915C8.86147 17.768 9.21807 17.5445 9.52019 17.2577C9.82231 16.9708 10.0638 16.6264 10.2305 16.2449C10.3972 15.8633 10.4857 15.4522 10.4907 15.0359V7.22679L14.6877 9.28028L14.6897 6.98459Z" />
<path d="M12.5912 14.8186C12.5619 16.1888 11.9962 17.4931 11.0156 18.4518C10.0349 19.4105 8.71727 19.9473 7.34502 19.9473C5.97277 19.9473 4.65514 19.4105 3.67449 18.4518C2.69384 17.4931 2.12822 16.1888 2.09886 14.8186V9.91309L0 10.9398V14.8166C0.0401156 16.7356 0.831543 18.5625 2.20456 19.9054C3.57758 21.2484 5.42285 22.0006 7.34463 22.0006C9.26642 22.0006 11.1117 21.2484 12.4847 19.9054C13.8577 18.5625 14.6491 16.7356 14.6893 14.8166V10.9398L12.5908 9.91309L12.5912 14.8186Z" />
<path d="M9.06734 0.398048C8.53099 0.136142 7.94185 0 7.34483 0C6.74781 0 6.15866 0.136142 5.62232 0.398048L0 3.14696V5.44265L5.62232 2.69174C6.15866 2.42983 6.74781 2.29369 7.34483 2.29369C7.94185 2.29369 8.53099 2.42983 9.06734 2.69174L14.6893 5.44265V3.14696L9.06734 0.398048Z" />
</svg>
